<svg width="200" height="200" viewBox="-25 -25 250 250" fill="none" xmlns="http://www.w3.org/2000/svg">
<path fill-rule="evenodd" clip-rule="evenodd" d="M24 0C10.7452 0 0 10.7452 0 24V176C0 189.255 10.7452 200 24 200H176C189.255 200 200 189.255 200 176V24C200 10.7452 189.255 0 176 0H24ZM43.5 28H156.5a3.5,3.5 0 0 1 3.5,3.5V31.5a3.5,3.5 0 0 1 -3.5,3.5H43.5a3.5,3.5 0 0 1 -3.5,-3.5V31.5a3.5,3.5 0 0 1 3.5,-3.5ZM43 44H129a3,3 0 0 1 3,3V47a3,3 0 0 1 -3,3H43a3,3 0 0 1 -3,-3V47a3,3 0 0 1 3,-3ZM43 60H105a3,3 0 0 1 3,3V63a3,3 0 0 1 -3,3H43a3,3 0 0 1 -3,-3V63a3,3 0 0 1 3,-3ZM126 64L158 64A2,2 0 0 1 160 66L160 68A2,2 0 0 1 158 70L126 70A2,2 0 0 1 124 68L124 66A2,2 0 0 1 126 64ZM139 70L145 70L145 96A2,2 0 0 1 143 98L141 98A2,2 0 0 1 139 96ZM65 116A9,9 0 1,1 47 116A9,9 0 1,1 65 116ZM40 164C56 164,62 128,78 128C94 128,102 146,116 146C130 146,138 122,150 122C156 122,156 164,160 164Z" fill="#FF3093"/>
</svg>
